<?xml version="1.0" encoding="UTF-8"?>
<svg xmlns="http://www.w3.org/2000/svg" viewBox="0 0 1600 900" preserveAspectRatio="xMidYMid slice" role="img" aria-label="DailyVerse background 4: desert-mercy">
  <defs>
    <linearGradient id="sky" x1="0" x2="1" y1="0" y2="1">
      <stop offset="0" stop-color="hsl(104, 56%, 25%)"/>
      <stop offset="0.44" stop-color="hsl(162, 78%, 54%)"/>
      <stop offset="1" stop-color="hsl(314, 64%, 13%)"/>
    </linearGradient>
    <radialGradient id="sun" cx="70%" cy="24%" r="44%">
      <stop offset="0" stop-color="hsl(176, 100%, 82%)" stop-opacity="0.94"/>
      <stop offset="0.38" stop-color="hsl(176, 92%, 62%)" stop-opacity="0.42"/>
      <stop offset="1" stop-color="hsl(314, 62%, 12%)" stop-opacity="0"/>
    </radialGradient>
    <linearGradient id="river" x1="0" x2="1" y1="0" y2="1">
      <stop offset="0" stop-color="hsl(162, 88%, 78%)" stop-opacity="0.78"/>
      <stop offset="0.54" stop-color="hsl(104, 82%, 48%)" stop-opacity="0.52"/>
      <stop offset="1" stop-color="hsl(314, 74%, 15%)" stop-opacity="0.96"/>
    </linearGradient>
    <filter id="soften"><feGaussianBlur stdDeviation="10"/></filter>
    <filter id="grain"><feTurbulence type="fractalNoise" baseFrequency="0.7" numOctaves="2" stitchTiles="stitch"/><feColorMatrix type="saturate" values="0"/><feComponentTransfer><feFuncA type="table" tableValues="0 0.08"/></feComponentTransfer></filter>
  </defs>
  <rect width="1600" height="900" fill="url(#sky)"/>
  <rect width="1600" height="900" fill="url(#sun)"/>
  <g transform="scale(-1 1) translate(-1600 0)">
    <circle cx="711.6" cy="405.0" r="1.2" fill="white" opacity="0.22"/><circle cx="542.3" cy="512.8" r="0.8" fill="white" opacity="0.22"/><circle cx="915.4" cy="326.4" r="2.0" fill="white" opacity="0.22"/><circle cx="1249.9" cy="185.1" r="2.0" fill="white" opacity="0.22"/><circle cx="1366.8" cy="121.5" r="1.0" fill="white" opacity="0.22"/><circle cx="157.8" cy="216.6" r="2.0" fill="white" opacity="0.22"/><circle cx="944.2" cy="392.3" r="1.5" fill="white" opacity="0.22"/><circle cx="612.1" cy="431.4" r="2.3" fill="white" opacity="0.22"/><circle cx="1181.7" cy="166.8" r="0.7" fill="white" opacity="0.22"/><circle cx="1397.7" cy="139.9" r="0.8" fill="white" opacity="0.22"/><circle cx="734.3" cy="168.6" r="1.7" fill="white" opacity="0.22"/><circle cx="1151.7" cy="247.8" r="1.1" fill="white" opacity="0.22"/><circle cx="1279.9" cy="251.5" r="2.2" fill="white" opacity="0.22"/><circle cx="1138.3" cy="474.6" r="1.3" fill="white" opacity="0.22"/><circle cx="1396.4" cy="476.1" r="1.8" fill="white" opacity="0.22"/><circle cx="728.7" cy="50.5" r="1.6" fill="white" opacity="0.22"/>
    <path d="M900 160 L1600 40 L1600 215 L930 295 Z" fill="white" opacity="0.13" filter="url(#soften)"/><path d="M900 217 L1600 97 L1600 289 L930 369 Z" fill="white" opacity="0.11" filter="url(#soften)"/><path d="M900 139 L1600 19 L1600 225 L930 305 Z" fill="white" opacity="0.15" filter="url(#soften)"/><path d="M900 257 L1600 137 L1600 351 L930 431 Z" fill="white" opacity="0.12" filter="url(#soften)"/>
    <path d="M0 590 C210 520 345 470 520 535 C720 610 850 500 1030 545 C1240 598 1390 482 1600 500 L1600 900 L0 900 Z" fill="hsl(314, 55%, 18%)" opacity="0.72"/>
    <path d="M0 636 C230 495 405 530 590 620 C760 704 910 505 1095 595 C1265 674 1415 550 1600 575 L1600 900 L0 900 Z" fill="hsl(104, 54%, 19%)" opacity="0.70"/>
    <path d="M836 900 C866 748 901 650 976 548 C1046 650 1086 770 1176 900 Z" fill="url(#river)" opacity="0.92"/>
    <path d="M864 900 C908 780 946 678 986 590 C1034 690 1078 805 1141 900 Z" fill="white" opacity="0.17" filter="url(#soften)"/>
    <g fill="none" stroke="hsl(176, 88%, 78%)" stroke-width="4" opacity="0.35"><path d="M116 900 C130 820 126 780 160 714"/><path d="M143 900 C152 836 172 790 205 742"/><path d="M1400 900 C1416 826 1418 782 1465 720"/><path d="M1450 900 C1470 838 1508 800 1540 750"/></g>
  </g>
  <rect width="1600" height="900" filter="url(#grain)" opacity="0.5"/>
</svg>
