<?xml version="1.0" encoding="UTF-8"?>
<svg xmlns="http://www.w3.org/2000/svg" viewBox="0 0 1600 900" preserveAspectRatio="xMidYMid slice" role="img" aria-label="DailyVerse background 20: gold-field">
  <defs>
    <linearGradient id="sky" x1="0" x2="1" y1="0" y2="1">
      <stop offset="0" stop-color="hsl(32, 56%, 25%)"/>
      <stop offset="0.44" stop-color="hsl(98, 78%, 54%)"/>
      <stop offset="1" stop-color="hsl(242, 64%, 13%)"/>
    </linearGradient>
    <radialGradient id="sun" cx="28%" cy="18%" r="32%">
      <stop offset="0" stop-color="hsl(104, 100%, 92%)" stop-opacity="0.76"/>
      <stop offset="0.38" stop-color="hsl(104, 92%, 72%)" stop-opacity="0.42"/>
      <stop offset="1" stop-color="hsl(242, 62%, 12%)" stop-opacity="0"/>
    </radialGradient>
    <linearGradient id="river" x1="0" x2="1" y1="0" y2="1">
      <stop offset="0" stop-color="hsl(98, 88%, 78%)" stop-opacity="0.78"/>
      <stop offset="0.54" stop-color="hsl(32, 82%, 48%)" stop-opacity="0.52"/>
      <stop offset="1" stop-color="hsl(242, 74%, 15%)" stop-opacity="0.96"/>
    </linearGradient>
    <filter id="soften"><feGaussianBlur stdDeviation="10"/></filter>
    <filter id="grain"><feTurbulence type="fractalNoise" baseFrequency="0.7" numOctaves="2" stitchTiles="stitch"/><feColorMatrix type="saturate" values="0"/><feComponentTransfer><feFuncA type="table" tableValues="0 0.08"/></feComponentTransfer></filter>
  </defs>
  <rect width="1600" height="900" fill="url(#sky)"/>
  <rect width="1600" height="900" fill="url(#sun)"/>
  <g transform="scale(-1 1) translate(-1600 0)">
    <circle cx="65.3" cy="85.2" r="1.1" fill="white" opacity="0.22"/><circle cx="1397.7" cy="186.9" r="1.2" fill="white" opacity="0.22"/><circle cx="1452.6" cy="281.9" r="1.2" fill="white" opacity="0.22"/><circle cx="248.9" cy="170.4" r="2.0" fill="white" opacity="0.22"/><circle cx="890.0" cy="352.8" r="1.5" fill="white" opacity="0.22"/><circle cx="467.5" cy="311.0" r="1.2" fill="white" opacity="0.22"/><circle cx="1489.4" cy="196.7" r="1.9" fill="white" opacity="0.22"/><circle cx="1166.4" cy="464.6" r="0.7" fill="white" opacity="0.22"/><circle cx="1174.6" cy="212.7" r="1.0" fill="white" opacity="0.22"/><circle cx="1427.7" cy="264.0" r="0.8" fill="white" opacity="0.22"/><circle cx="799.6" cy="175.9" r="1.8" fill="white" opacity="0.22"/><circle cx="484.8" cy="201.3" r="1.0" fill="white" opacity="0.22"/><circle cx="733.1" cy="366.6" r="1.2" fill="white" opacity="0.22"/><circle cx="903.7" cy="381.9" r="1.6" fill="white" opacity="0.22"/><circle cx="100.6" cy="93.4" r="0.9" fill="white" opacity="0.22"/><circle cx="579.1" cy="135.8" r="2.5" fill="white" opacity="0.22"/>
    <path d="M900 83 L1600 0 L1600 150 L930 230 Z" fill="white" opacity="0.13" filter="url(#soften)"/><path d="M900 97 L1600 0 L1600 181 L930 261 Z" fill="white" opacity="0.11" filter="url(#soften)"/><path d="M900 241 L1600 121 L1600 348 L930 428 Z" fill="white" opacity="0.11" filter="url(#soften)"/><path d="M900 135 L1600 15 L1600 205 L930 285 Z" fill="white" opacity="0.11" filter="url(#soften)"/>
    <path d="M0 600 C250 520 410 520 620 590 C810 654 960 520 1120 582 C1310 650 1445 548 1600 560 L1600 900 L0 900 Z" fill="hsl(242, 55%, 18%)" opacity="0.72"/>
    <path d="M0 636 C230 495 405 530 590 620 C760 704 910 505 1095 595 C1265 674 1415 550 1600 575 L1600 900 L0 900 Z" fill="hsl(32, 54%, 19%)" opacity="0.70"/>
    <path d="M700 900 C730 748 765 650 840 548 C910 650 950 770 1040 900 Z" fill="url(#river)" opacity="0.92"/>
    <path d="M728 900 C772 780 810 678 850 590 C898 690 942 805 1005 900 Z" fill="white" opacity="0.17" filter="url(#soften)"/>
    <g fill="hsl(242, 42%, 14%)" opacity="0.42"><ellipse cx="140" cy="846" rx="95" ry="26"/><ellipse cx="1328" cy="830" rx="125" ry="32"/><ellipse cx="1510" cy="862" rx="72" ry="20"/></g>
  </g>
  <rect width="1600" height="900" filter="url(#grain)" opacity="0.5"/>
</svg>
