<?xml version="1.0" encoding="UTF-8"?>
<svg xmlns="http://www.w3.org/2000/svg" viewBox="0 0 1600 900" preserveAspectRatio="xMidYMid slice" role="img" aria-label="DailyVerse background 19: night-peace">
  <defs>
    <linearGradient id="sky" x1="0" x2="1" y1="0" y2="1">
      <stop offset="0" stop-color="hsl(187, 56%, 25%)"/>
      <stop offset="0.44" stop-color="hsl(227, 78%, 54%)"/>
      <stop offset="1" stop-color="hsl(37, 64%, 13%)"/>
    </linearGradient>
    <radialGradient id="sun" cx="70%" cy="24%" r="44%">
      <stop offset="0" stop-color="hsl(259, 100%, 82%)" stop-opacity="0.94"/>
      <stop offset="0.38" stop-color="hsl(259, 92%, 62%)" stop-opacity="0.42"/>
      <stop offset="1" stop-color="hsl(37, 62%, 12%)" stop-opacity="0"/>
    </radialGradient>
    <linearGradient id="river" x1="0" x2="1" y1="0" y2="1">
      <stop offset="0" stop-color="hsl(227, 88%, 78%)" stop-opacity="0.78"/>
      <stop offset="0.54" stop-color="hsl(187, 82%, 48%)" stop-opacity="0.52"/>
      <stop offset="1" stop-color="hsl(37, 74%, 15%)" stop-opacity="0.96"/>
    </linearGradient>
    <filter id="soften"><feGaussianBlur stdDeviation="10"/></filter>
    <filter id="grain"><feTurbulence type="fractalNoise" baseFrequency="0.7" numOctaves="2" stitchTiles="stitch"/><feColorMatrix type="saturate" values="0"/><feComponentTransfer><feFuncA type="table" tableValues="0 0.08"/></feComponentTransfer></filter>
  </defs>
  <rect width="1600" height="900" fill="url(#sky)"/>
  <rect width="1600" height="900" fill="url(#sun)"/>
  <g transform="">
    <circle cx="298.1" cy="392.3" r="1.7" fill="white" opacity="0.22"/><circle cx="441.5" cy="168.6" r="1.8" fill="white" opacity="0.22"/><circle cx="709.7" cy="476.1" r="2.2" fill="white" opacity="0.22"/><circle cx="1519.2" cy="319.8" r="2.4" fill="white" opacity="0.22"/><circle cx="991.6" cy="360.8" r="1.1" fill="white" opacity="0.22"/><circle cx="974.7" cy="222.8" r="1.8" fill="white" opacity="0.22"/><circle cx="278.1" cy="431.8" r="2.5" fill="white" opacity="0.22"/><circle cx="1347.5" cy="223.2" r="0.7" fill="white" opacity="0.22"/><circle cx="1458.6" cy="102.7" r="2.5" fill="white" opacity="0.22"/><circle cx="587.0" cy="150.6" r="2.1" fill="white" opacity="0.22"/><circle cx="500.1" cy="374.7" r="0.7" fill="white" opacity="0.22"/><circle cx="975.2" cy="257.2" r="1.5" fill="white" opacity="0.22"/><circle cx="586.4" cy="508.4" r="1.8" fill="white" opacity="0.22"/><circle cx="590.1" cy="362.2" r="2.0" fill="white" opacity="0.22"/><circle cx="98.0" cy="173.9" r="1.4" fill="white" opacity="0.22"/><circle cx="1212.8" cy="509.9" r="1.6" fill="white" opacity="0.22"/>
    <path d="M900 111 L1600 0 L1600 198 L930 278 Z" fill="white" opacity="0.11" filter="url(#soften)"/><path d="M900 212 L1600 92 L1600 285 L930 365 Z" fill="white" opacity="0.15" filter="url(#soften)"/><path d="M900 128 L1600 8 L1600 187 L930 267 Z" fill="white" opacity="0.14" filter="url(#soften)"/><path d="M900 128 L1600 8 L1600 227 L930 307 Z" fill="white" opacity="0.13" filter="url(#soften)"/>
    <path d="M0 540 C210 370 380 440 560 505 C710 560 845 330 1030 430 C1210 528 1390 382 1600 395 L1600 900 L0 900 Z" fill="hsl(37, 55%, 18%)" opacity="0.72"/>
    <path d="M0 636 C230 495 405 530 590 620 C760 704 910 505 1095 595 C1265 674 1415 550 1600 575 L1600 900 L0 900 Z" fill="hsl(187, 54%, 19%)" opacity="0.70"/>
    <path d="M836 900 C866 748 901 650 976 548 C1046 650 1086 770 1176 900 Z" fill="url(#river)" opacity="0.92"/>
    <path d="M864 900 C908 780 946 678 986 590 C1034 690 1078 805 1141 900 Z" fill="white" opacity="0.17" filter="url(#soften)"/>
    <g fill="none" stroke="hsl(259, 88%, 78%)" stroke-width="4" opacity="0.35"><path d="M116 900 C130 820 126 780 160 714"/><path d="M143 900 C152 836 172 790 205 742"/><path d="M1400 900 C1416 826 1418 782 1465 720"/><path d="M1450 900 C1470 838 1508 800 1540 750"/></g>
  </g>
  <rect width="1600" height="900" filter="url(#grain)" opacity="0.5"/>
</svg>
